<?xml version="1.0" standalone="no"?>
<!DOCTYPE svg PUBLIC "-//W3C//DTD SVG 20010904//EN"
 "http://www.w3.org/TR/2001/REC-SVG-20010904/DTD/svg10.dtd">
<svg version="1.0" xmlns="http://www.w3.org/2000/svg"
 width="500.000000pt" height="500.000000pt" viewBox="0 0 500.000000 500.000000"
 preserveAspectRatio="xMidYMid meet">

<g transform="translate(0.000000,500.000000) scale(0.100000,-0.100000)"
fill="#000000" stroke="none">
<path d="M1247 4903 c689 -2 1817 -2 2505 0 689 1 126 2 -1252 2 -1378 0
-1941 -1 -1253 -2z"/>
<path d="M1247 4803 c689 -2 1817 -2 2505 0 689 1 126 2 -1252 2 -1378 0
-1941 -1 -1253 -2z"/>
<path d="M1247 4703 c689 -2 1817 -2 2505 0 689 1 126 2 -1252 2 -1378 0
-1941 -1 -1253 -2z"/>
<path d="M1247 4603 c689 -2 1817 -2 2505 0 689 1 126 2 -1252 2 -1378 0
-1941 -1 -1253 -2z"/>
<path d="M1247 4503 c689 -2 1817 -2 2505 0 689 1 126 2 -1252 2 -1378 0
-1941 -1 -1253 -2z"/>
<path d="M1247 4403 c689 -2 1817 -2 2505 0 689 1 126 2 -1252 2 -1378 0
-1941 -1 -1253 -2z"/>
<path d="M1247 4303 c689 -2 1817 -2 2505 0 689 1 126 2 -1252 2 -1378 0
-1941 -1 -1253 -2z"/>
<path d="M1247 4203 c689 -2 1817 -2 2505 0 689 1 126 2 -1252 2 -1378 0
-1941 -1 -1253 -2z"/>
<path d="M1247 4103 c689 -2 1817 -2 2505 0 689 1 126 2 -1252 2 -1378 0
-1941 -1 -1253 -2z"/>
<path d="M1247 4003 c689 -2 1817 -2 2505 0 689 1 126 2 -1252 2 -1378 0
-1941 -1 -1253 -2z"/>
<path d="M1247 3903 c689 -2 1817 -2 2505 0 689 1 126 2 -1252 2 -1378 0
-1941 -1 -1253 -2z"/>
<path d="M1247 3803 c689 -2 1817 -2 2505 0 689 1 126 2 -1252 2 -1378 0
-1941 -1 -1253 -2z"/>
<path d="M1247 3703 c689 -2 1817 -2 2505 0 689 1 126 2 -1252 2 -1378 0
-1941 -1 -1253 -2z"/>
<path d="M1247 3603 c689 -2 1817 -2 2505 0 689 1 126 2 -1252 2 -1378 0
-1941 -1 -1253 -2z"/>
<path d="M1247 3503 c689 -2 1817 -2 2505 0 689 1 126 2 -1252 2 -1378 0
-1941 -1 -1253 -2z"/>
<path d="M1247 3403 c689 -2 1817 -2 2505 0 689 1 126 2 -1252 2 -1378 0
-1941 -1 -1253 -2z"/>
<path d="M1247 3303 c689 -2 1817 -2 2505 0 689 1 126 2 -1252 2 -1378 0
-1941 -1 -1253 -2z"/>
<path d="M1247 3203 c689 -2 1817 -2 2505 0 689 1 126 2 -1252 2 -1378 0
-1941 -1 -1253 -2z"/>
<path d="M1247 3103 c689 -2 1817 -2 2505 0 689 1 126 2 -1252 2 -1378 0
-1941 -1 -1253 -2z"/>
<path d="M1247 3003 c689 -2 1817 -2 2505 0 689 1 126 2 -1252 2 -1378 0
-1941 -1 -1253 -2z"/>
<path d="M1247 2903 c689 -2 1817 -2 2505 0 689 1 126 2 -1252 2 -1378 0
-1941 -1 -1253 -2z"/>
<path d="M1247 2803 c689 -2 1817 -2 2505 0 689 1 126 2 -1252 2 -1378 0
-1941 -1 -1253 -2z"/>
<path d="M1247 2703 c689 -2 1817 -2 2505 0 689 1 126 2 -1252 2 -1378 0
-1941 -1 -1253 -2z"/>
<path d="M1247 2603 c689 -2 1817 -2 2505 0 689 1 126 2 -1252 2 -1378 0
-1941 -1 -1253 -2z"/>
<path d="M1247 2503 c689 -2 1817 -2 2505 0 689 1 126 2 -1252 2 -1378 0
-1941 -1 -1253 -2z"/>
<path d="M1247 2403 c689 -2 1817 -2 2505 0 689 1 126 2 -1252 2 -1378 0
-1941 -1 -1253 -2z"/>
<path d="M1247 2303 c689 -2 1817 -2 2505 0 689 1 126 2 -1252 2 -1378 0
-1941 -1 -1253 -2z"/>
<path d="M1247 2203 c689 -2 1817 -2 2505 0 689 1 126 2 -1252 2 -1378 0
-1941 -1 -1253 -2z"/>
<path d="M1247 2103 c689 -2 1817 -2 2505 0 689 1 126 2 -1252 2 -1378 0
-1941 -1 -1253 -2z"/>
<path d="M1247 2003 c689 -2 1817 -2 2505 0 689 1 126 2 -1252 2 -1378 0
-1941 -1 -1253 -2z"/>
<path d="M1247 1903 c689 -2 1817 -2 2505 0 689 1 126 2 -1252 2 -1378 0
-1941 -1 -1253 -2z"/>
<path d="M1247 1803 c689 -2 1817 -2 2505 0 689 1 126 2 -1252 2 -1378 0
-1941 -1 -1253 -2z"/>
<path d="M1247 1703 c689 -2 1817 -2 2505 0 689 1 126 2 -1252 2 -1378 0
-1941 -1 -1253 -2z"/>
<path d="M1247 1603 c689 -2 1817 -2 2505 0 689 1 126 2 -1252 2 -1378 0
-1941 -1 -1253 -2z"/>
<path d="M1247 1503 c689 -2 1817 -2 2505 0 689 1 126 2 -1252 2 -1378 0
-1941 -1 -1253 -2z"/>
<path d="M1247 1403 c689 -2 1817 -2 2505 0 689 1 126 2 -1252 2 -1378 0
-1941 -1 -1253 -2z"/>
<path d="M1247 1303 c689 -2 1817 -2 2505 0 689 1 126 2 -1252 2 -1378 0
-1941 -1 -1253 -2z"/>
<path d="M1247 1203 c689 -2 1817 -2 2505 0 689 1 126 2 -1252 2 -1378 0
-1941 -1 -1253 -2z"/>
<path d="M1247 1103 c689 -2 1817 -2 2505 0 689 1 126 2 -1252 2 -1378 0
-1941 -1 -1253 -2z"/>
<path d="M1247 1003 c689 -2 1817 -2 2505 0 689 1 126 2 -1252 2 -1378 0
-1941 -1 -1253 -2z"/>
<path d="M1247 903 c689 -2 1817 -2 2505 0 689 1 126 2 -1252 2 -1378 0 -1941
-1 -1253 -2z"/>
<path d="M1247 803 c689 -2 1817 -2 2505 0 689 1 126 2 -1252 2 -1378 0 -1941
-1 -1253 -2z"/>
<path d="M1247 703 c689 -2 1817 -2 2505 0 689 1 126 2 -1252 2 -1378 0 -1941
-1 -1253 -2z"/>
<path d="M1247 603 c689 -2 1817 -2 2505 0 689 1 126 2 -1252 2 -1378 0 -1941
-1 -1253 -2z"/>
<path d="M1247 503 c689 -2 1817 -2 2505 0 689 1 126 2 -1252 2 -1378 0 -1941
-1 -1253 -2z"/>
<path d="M1247 403 c689 -2 1817 -2 2505 0 689 1 126 2 -1252 2 -1378 0 -1941
-1 -1253 -2z"/>
<path d="M1247 303 c689 -2 1817 -2 2505 0 689 1 126 2 -1252 2 -1378 0 -1941
-1 -1253 -2z"/>
<path d="M1247 203 c689 -2 1817 -2 2505 0 689 1 126 2 -1252 2 -1378 0 -1941
-1 -1253 -2z"/>
<path d="M1247 103 c689 -2 1817 -2 2505 0 689 1 126 2 -1252 2 -1378 0 -1941
-1 -1253 -2z"/>
<path d="M1247 3 c689 -2 1817 -2 2505 0 689 1 126 2 -1252 2 -1378 0 -1941
-1 -1253 -2z"/>
</g>
</svg>
